
<svg width="512px" height="512px" viewBox="0 0 512 512" version="1.1" xmlns="http://www.w3.org/2000/svg" xmlns:xlink="http://www.w3.org/1999/xlink">
    <g id="IoT-Maker-website" stroke="none" stroke-width="1" fill="none" fill-rule="evenodd">
        <g id="night-mode-2" fill-rule="nonzero">
            <g id="night-mode">
                <g id="XMLID_00000164504899680086221700000001500929424774730913_" fill="#3B3B3B">
                    <circle id="Oval" cx="256" cy="256" r="256"></circle>
                </g>
                <path d="M509.622,290.9 L390.466,171.743 L387.123,196.035 L283.02,91.932 L276.495,120.063 L223.944,67.512 C90.453,149.587 127.486,379.828 127.486,379.828 L261.953,511.925 C388.812,509.029 492.859,413.853 509.622,290.9 L509.622,290.9 Z" id="Path" fill="#303030"></path>
                <g id="Group" transform="translate(74.805000, 67.512000)">
                    <g id="Path">
                        <path d="M102.378,111.068 C102.378,67.539 120.291,28.201 149.139,0 C64.058,17.198 0,92.383 0,182.535 C0,285.39 83.38,368.77 186.235,368.77 C193.673,368.77 201.006,368.325 208.215,367.477 L256.806,307.787 L208.215,258.337 C146.697,237.674 102.378,179.548 102.378,111.068 Z" fill="#F39D16"></path>
                        <path d="M257.702,266.392 C240.399,266.392 223.759,263.559 208.215,258.338 L208.215,367.477 C288.395,358.048 352.991,297.692 368.77,219.631 C340.569,248.479 301.23,266.392 257.702,266.392 Z" fill="#D08510"></path>
                        <polygon fill="#F39D16" points="154.032 78.602 189.855 96.962 208.215 132.785 226.724 78.602 208.215 24.42 189.855 60.243"></polygon>
                        <polygon fill="#D08510" points="226.575 96.962 262.398 78.602 226.575 60.243 208.215 24.42 208.215 132.785"></polygon>
                    </g>
                    <polygon id="Path" fill="#D08510" points="315.661 104.231 332.129 136.364 364.262 152.833 332.129 169.302 315.661 201.435 299.192 169.302 267.059 152.833 299.192 136.364"></polygon>
                </g>
            </g>
        </g>
    </g>
</svg>
