
<svg width="512px" height="512px" viewBox="0 0 512 512" version="1.1" xmlns="http://www.w3.org/2000/svg" xmlns:xlink="http://www.w3.org/1999/xlink">
    <g id="IoT-Maker-website" stroke="none" stroke-width="1" fill="none" fill-rule="evenodd">
        <g id="Group-4" fill-rule="nonzero">
            <g id="XMLID_00000008866654208430305910000008373538408387857302_" fill="#F39D16">
                <circle id="Oval" cx="256" cy="256" r="256"></circle>
            </g>
            <path d="M512,256 C512,229.928 508.091,204.771 500.847,181.07 L429.14,109.363 L378.429,133.572 L274.74,29.884 L237.26,93.507 L283.133,139.38 L193.447,166.944 L154.352,127.849 L126.445,124.304 L127.849,154.352 L165.456,191.959 L149.545,293.298 L93.507,237.26 L29.884,274.74 L126.946,371.802 L109.363,429.139 L181.07,500.846 C204.771,508.091 229.928,512 256,512 C397.385,512 512,397.385 512,256 Z" id="Path" fill="#D08510"></path>
            <path d="M147.175,256 C147.175,316.103 195.898,364.825 256,364.825 L310.413,256 L256,147.175 C195.897,147.175 147.175,195.897 147.175,256 Z" id="Path" fill="#FFFFFF"></path>
            <path d="M256,147.175 L256,364.826 C316.103,364.826 364.825,316.103 364.825,256.001 C364.825,195.899 316.103,147.175 256,147.175 Z" id="Path" fill="#3B3B3B"></path>
            <polygon id="Path" fill="#141414" points="418.493 237.26 482.116 237.26 482.116 274.74 418.493 274.74"></polygon>
            <polygon id="Path" fill="#373737" points="29.884 237.26 93.507 237.26 93.507 274.74 29.884 274.74"></polygon>
            <g id="Group" transform="translate(131.551000, 29.884000)">
                <path d="M0,226.116 C0,294.737 55.828,350.565 124.449,350.565 L150.752,330.561 L124.449,316.107 C74.828,316.107 34.458,275.737 34.458,226.116 C34.458,176.495 74.828,136.125 124.449,136.125 L157.905,117.291 L124.449,101.667 C55.828,101.667 0,157.495 0,226.116 Z" id="Path" fill="#373737"></path>
                <path d="M248.899,226.116 C248.899,294.736 193.069,350.566 124.449,350.566 L124.449,316.106 C174.149,316.106 214.439,275.816 214.439,226.116 C214.439,176.416 174.149,136.126 124.449,136.126 L124.449,101.666 C193.069,101.666 248.899,157.496 248.899,226.116 Z" id="Path" fill="#141414"></path>
                <polygon id="Path" fill="#373737" points="105.709 452.232 124.449 452.232 137.199 420.421 124.449 388.609 105.709 388.609"></polygon>
                <polygon id="Path" fill="#141414" points="124.449 388.609 143.189 388.609 143.189 452.232 124.449 452.232"></polygon>
                <polygon id="Path" fill="#373737" points="105.709 63.623 124.449 63.623 138.329 31.812 124.449 0 105.709 0"></polygon>
                <polygon id="Path" fill="#141414" points="124.449 0 143.189 0 143.189 63.623 124.449 63.623"></polygon>
            </g>
            <polygon id="Path" fill="#141414" transform="translate(393.309763, 393.393647) rotate(-45.000000) translate(-393.309763, -393.393647) " points="374.572592 361.58695 412.046933 361.58695 412.046933 425.200343 374.572592 425.200343"></polygon>
            <polygon id="Path" fill="#373737" transform="translate(118.580531, 118.605647) rotate(-45.000000) translate(-118.580531, -118.605647) " points="99.8433605 86.7989504 137.317701 86.7989504 137.317701 150.412343 99.8433605 150.412343"></polygon>
            <polygon id="Path" fill="#373737" transform="translate(118.550646, 393.365470) rotate(-45.000000) translate(-118.550646, -393.365470) " points="86.7439504 374.628299 150.357343 374.628299 150.357343 412.10264 86.7439504 412.10264"></polygon>
            <polygon id="Path" fill="#141414" transform="translate(393.338647, 118.636238) rotate(-45.000000) translate(-393.338647, -118.636238) " points="361.53195 99.8990675 425.145343 99.8990675 425.145343 137.373408 361.53195 137.373408"></polygon>
        </g>
    </g>
</svg>
